<svg width="60" height="60" viewBox="0 0 60 60" fill="none" xmlns="http://www.w3.org/2000/svg">
<path d="M16.25 35C17.2446 35 18.1984 34.6049 18.9017 33.9016C19.6049 33.1984 20 32.2446 20 31.25C20 30.2554 19.6049 29.3016 18.9017 28.5983C18.1984 27.8951 17.2446 27.5 16.25 27.5C15.2554 27.5 14.3016 27.8951 13.5983 28.5983C12.8951 29.3016 12.5 30.2554 12.5 31.25C12.5 32.2446 12.8951 33.1984 13.5983 33.9016C14.3016 34.6049 15.2554 35 16.25 35ZM20 43.75C20 44.7446 19.6049 45.6984 18.9017 46.4016C18.1984 47.1049 17.2446 47.5 16.25 47.5C15.2554 47.5 14.3016 47.1049 13.5983 46.4016C12.8951 45.6984 12.5 44.7446 12.5 43.75C12.5 42.7554 12.8951 41.8016 13.5983 41.0984C14.3016 40.3951 15.2554 40 16.25 40C17.2446 40 18.1984 40.3951 18.9017 41.0984C19.6049 41.8016 20 42.7554 20 43.75ZM30 47.5C30.9946 47.5 31.9484 47.1049 32.6516 46.4016C33.3549 45.6984 33.75 44.7446 33.75 43.75C33.75 42.7554 33.3549 41.8016 32.6516 41.0984C31.9484 40.3951 30.9946 40 30 40C29.0054 40 28.0516 40.3951 27.3483 41.0984C26.6451 41.8016 26.25 42.7554 26.25 43.75C26.25 44.7446 26.6451 45.6984 27.3483 46.4016C28.0516 47.1049 29.0054 47.5 30 47.5ZM33.75 31.25C33.75 32.2446 33.3549 33.1984 32.6516 33.9016C31.9484 34.6049 30.9946 35 30 35C29.0054 35 28.0516 34.6049 27.3483 33.9016C26.6451 33.1984 26.25 32.2446 26.25 31.25C26.25 30.2554 26.6451 29.3016 27.3483 28.5983C28.0516 27.8951 29.0054 27.5 30 27.5C30.9946 27.5 31.9484 27.8951 32.6516 28.5983C33.3549 29.3016 33.75 30.2554 33.75 31.25ZM43.75 35C44.7446 35 45.6984 34.6049 46.4016 33.9016C47.1049 33.1984 47.5 32.2446 47.5 31.25C47.5 30.2554 47.1049 29.3016 46.4016 28.5983C45.6984 27.8951 44.7446 27.5 43.75 27.5C42.7554 27.5 41.8016 27.8951 41.0984 28.5983C40.3951 29.3016 40 30.2554 40 31.25C40 32.2446 40.3951 33.1984 41.0984 33.9016C41.8016 34.6049 42.7554 35 43.75 35ZM0 12.5C0 9.18479 1.31696 6.00537 3.66117 3.66117C6.00537 1.31696 9.18479 0 12.5 0H47.5C50.8152 0 53.9946 1.31696 56.3388 3.66117C58.683 6.00537 60 9.18479 60 12.5V47.5C60 50.8152 58.683 53.9946 56.3388 56.3388C53.9946 58.683 50.8152 60 47.5 60H12.5C9.18479 60 6.00537 58.683 3.66117 56.3388C1.31696 53.9946 0 50.8152 0 47.5V12.5ZM12.5 5C10.5109 5 8.60322 5.79018 7.1967 7.1967C5.79018 8.60322 5 10.5109 5 12.5V15H55V12.5C55 10.5109 54.2098 8.60322 52.8033 7.1967C51.3968 5.79018 49.4891 5 47.5 5H12.5ZM5 47.5C5 49.4891 5.79018 51.3968 7.1967 52.8033C8.60322 54.2098 10.5109 55 12.5 55H47.5C49.4891 55 51.3968 54.2098 52.8033 52.8033C54.2098 51.3968 55 49.4891 55 47.5V20H5V47.5Z" fill="#2176B9"/>
</svg>
