<svg width="60" height="43" viewBox="0 0 60 43" fill="none" xmlns="http://www.w3.org/2000/svg">
<path d="M60 21.3147C60 21.1691 60 21.0037 59.9933 20.8118C59.9866 20.2758 59.9732 19.6736 59.9598 19.0317C59.9062 17.1854 59.8125 15.3458 59.6652 13.612C59.4643 11.2231 59.1696 9.2313 58.7679 7.73576C58.3439 6.17504 57.5128 4.75163 56.3576 3.60779C55.2025 2.46396 53.7638 1.63977 52.1853 1.2176C50.2902 0.714681 46.5804 0.403662 41.3571 0.211757C38.8728 0.119113 36.2143 0.0595564 33.5558 0.0264693C32.625 0.0132344 31.7612 0.00661742 30.9844 0H29.0156C28.2388 0.00661742 27.375 0.0132344 26.4442 0.0264693C23.7857 0.0595564 21.1272 0.119113 18.6429 0.211757C13.4196 0.41028 9.70312 0.721298 7.81473 1.2176C6.23572 1.63873 4.79645 2.46258 3.64114 3.60657C2.48584 4.75057 1.65509 6.17453 1.23214 7.73576C0.823661 9.2313 0.535714 11.2231 0.334821 13.612C0.1875 15.3458 0.0937499 17.1854 0.0401785 19.0317C0.0200892 19.6736 0.0133928 20.2758 0.00669633 20.8118C0.00669633 21.0037 0 21.1691 0 21.3147V21.6853C0 21.8309 -1.02279e-07 21.9963 0.00669633 22.1882C0.0133928 22.7242 0.0267856 23.3264 0.0401785 23.9683C0.0937499 25.8146 0.1875 27.6542 0.334821 29.388C0.535714 31.7769 0.830357 33.7687 1.23214 35.2642C2.08929 38.434 4.60714 40.9354 7.81473 41.7824C9.70312 42.2853 13.4196 42.5963 18.6429 42.7882C21.1272 42.8809 23.7857 42.9404 26.4442 42.9735C27.375 42.9868 28.2388 42.9934 29.0156 43H30.9844C31.7612 42.9934 32.625 42.9868 33.5558 42.9735C36.2143 42.9404 38.8728 42.8809 41.3571 42.7882C46.5804 42.5897 50.2969 42.2787 52.1853 41.7824C55.3929 40.9354 57.9107 38.4406 58.7679 35.2642C59.1763 33.7687 59.4643 31.7769 59.6652 29.388C59.8125 27.6542 59.9062 25.8146 59.9598 23.9683C59.9799 23.3264 59.9866 22.7242 59.9933 22.1882C59.9933 21.9963 60 21.8309 60 21.6853V21.3147ZM55.1786 21.6588C55.1786 21.7978 55.1786 21.95 55.1719 22.1287C55.1652 22.6448 55.1518 23.2139 55.1384 23.8293C55.0915 25.5896 54.9978 27.3498 54.8571 28.9843C54.6763 31.1151 54.4219 32.8621 54.1071 34.0334C53.692 35.562 52.4732 36.773 50.933 37.1767C49.5268 37.5472 45.9844 37.845 41.1696 38.0237C38.7321 38.1163 36.1071 38.1759 33.4888 38.209C32.5714 38.2222 31.721 38.2288 30.9576 38.2288H29.0424L26.5112 38.209C23.8929 38.1759 21.2746 38.1163 18.8304 38.0237C14.0156 37.8384 10.4665 37.5472 9.06696 37.1767C7.52678 36.7664 6.30804 35.562 5.89286 34.0334C5.57812 32.8621 5.32366 31.1151 5.14286 28.9843C5.00223 27.3498 4.91518 25.5896 4.86161 23.8293C4.84152 23.2139 4.83482 22.6382 4.82813 22.1287C4.82813 21.95 4.82143 21.7912 4.82143 21.6588V21.3412C4.82143 21.2022 4.82143 21.05 4.82813 20.8713C4.83482 20.3552 4.84821 19.7861 4.86161 19.1707C4.90848 17.4104 5.00223 15.6502 5.14286 14.0157C5.32366 11.8849 5.57812 10.1379 5.89286 8.9666C6.30804 7.43798 7.52678 6.22699 9.06696 5.82333C10.4732 5.45275 14.0156 5.15497 18.8304 4.9763C21.2679 4.88366 23.8929 4.8241 26.5112 4.79101C27.4286 4.77778 28.279 4.77116 29.0424 4.77116H30.9576L33.4888 4.79101C36.1071 4.8241 38.7254 4.88366 41.1696 4.9763C45.9844 5.16159 49.5335 5.45275 50.933 5.82333C52.4732 6.23361 53.692 7.43798 54.1071 8.9666C54.4219 10.1379 54.6763 11.8849 54.8571 14.0157C54.9978 15.6502 55.0848 17.4104 55.1384 19.1707C55.1585 19.7861 55.1652 20.3618 55.1719 20.8713C55.1719 21.05 55.1786 21.2088 55.1786 21.3412V21.6588ZM24.0402 30.3673L39.5759 21.4338L24.0402 12.6327V30.3673Z" fill="#2176B9"/>
</svg>
