<svg width="80" height="86" viewBox="0 0 80 86" fill="none" xmlns="http://www.w3.org/2000/svg">
<g filter="url(#filter0_f_61_3)">
<path fill-rule="evenodd" clip-rule="evenodd" d="M18.8734 18.6814C18.0776 26.7612 17.6889 34.876 17.7088 42.9951C17.7088 53.8274 18.3644 62.32 18.8734 67.3165C26.2473 63.9595 33.4484 60.2332 40.4495 56.1516C47.4725 52.113 54.2887 47.7233 60.8726 42.999C54.2896 38.2705 47.4747 33.8756 40.4534 29.8308C33.4502 25.7554 26.2478 22.0343 18.8734 18.6814ZM11.5271 15.0152C11.6305 14.1368 11.937 13.2946 12.4222 12.5559C12.9074 11.8172 13.5579 11.2023 14.322 10.7603C15.086 10.3182 15.9424 10.0612 16.8229 10.0097C17.7035 9.95811 18.5839 10.1135 19.394 10.4634C23.4894 12.2192 32.6674 16.392 44.3135 23.1327C55.9635 29.8772 64.1582 35.7671 67.7175 38.4394C70.7563 40.725 70.764 45.2575 67.7214 47.5508C64.1967 50.2076 56.1023 56.0201 44.3135 62.8498C32.5132 69.6794 23.4431 73.8019 19.3863 75.5345C15.8925 77.0311 11.9821 74.761 11.5271 70.9827C10.9949 66.5662 10 56.5383 10 42.9951C10 29.4596 10.9911 19.4355 11.5271 15.0152Z" fill="#FEFEFE"/>
</g>
<path fill-rule="evenodd" clip-rule="evenodd" d="M18.8734 18.6814C18.0776 26.7612 17.6889 34.876 17.7088 42.9951C17.7088 53.8274 18.3644 62.32 18.8734 67.3165C26.2473 63.9595 33.4484 60.2332 40.4495 56.1516C47.4725 52.113 54.2887 47.7233 60.8726 42.999C54.2896 38.2705 47.4747 33.8756 40.4534 29.8308C33.4502 25.7554 26.2478 22.0343 18.8734 18.6814ZM11.5271 15.0152C11.6305 14.1368 11.937 13.2946 12.4222 12.5559C12.9074 11.8172 13.5579 11.2023 14.322 10.7603C15.086 10.3182 15.9424 10.0612 16.8229 10.0097C17.7035 9.95811 18.5839 10.1135 19.394 10.4634C23.4894 12.2192 32.6674 16.392 44.3135 23.1327C55.9635 29.8772 64.1582 35.7671 67.7175 38.4394C70.7563 40.725 70.764 45.2575 67.7214 47.5508C64.1967 50.2076 56.1023 56.0201 44.3135 62.8498C32.5132 69.6794 23.4431 73.8019 19.3863 75.5345C15.8925 77.0311 11.9821 74.761 11.5271 70.9827C10.9949 66.5662 10 56.5383 10 42.9951C10 29.4596 10.9911 19.4355 11.5271 15.0152Z" fill="#2176B9"/>
<defs>
<filter id="filter0_f_61_3" x="0" y="0" width="80" height="86" filterUnits="userSpaceOnUse" color-interpolation-filters="sRGB">
<feFlood flood-opacity="0" result="BackgroundImageFix"/>
<feBlend mode="normal" in="SourceGraphic" in2="BackgroundImageFix" result="shape"/>
<feGaussianBlur stdDeviation="5" result="effect1_foregroundBlur_61_3"/>
</filter>
</defs>
</svg>
