<svg width="30" height="30" viewBox="0 0 30 30" fill="none" xmlns="http://www.w3.org/2000/svg">
<path d="M26.5397 30H26.3436C3.67887 28.6962 0.46082 9.56539 0.0109861 3.72692C-0.0252598 3.27298 0.0283897 2.81634 0.168861 2.38317C0.309331 1.95 0.533863 1.54881 0.829589 1.2026C1.12532 0.856385 1.48643 0.571948 1.89223 0.365584C2.29803 0.15922 2.74055 0.0349867 3.19443 1.08184e-06H9.54978C10.0118 -0.000446338 10.4633 0.137897 10.8458 0.397111C11.2283 0.656325 11.5242 1.02447 11.6951 1.45385L13.4483 5.76923C13.6172 6.18871 13.659 6.64855 13.5688 7.09164C13.4786 7.53473 13.2602 7.94155 12.9408 8.26154L10.4841 10.7423C10.8678 12.9239 11.9122 14.935 13.4759 16.5034C15.0396 18.0718 17.0472 19.1219 19.227 19.5115L21.7299 17.0308C22.0546 16.7148 22.4651 16.5014 22.9102 16.4173C23.3553 16.3332 23.8153 16.382 24.2328 16.5577L28.5812 18.3C29.004 18.4764 29.3647 18.7747 29.6173 19.1569C29.87 19.5391 30.0032 19.9879 29.9999 20.4462V26.5385C29.9999 27.4565 29.6354 28.337 28.9865 28.9861C28.3375 29.6353 27.4574 30 26.5397 30ZM3.47125 2.30769C3.16534 2.30769 2.87197 2.42926 2.65566 2.64565C2.43935 2.86204 2.31783 3.15552 2.31783 3.46154V3.55385C2.8484 10.3846 6.251 26.5385 26.4705 27.6923C26.622 27.7017 26.7739 27.681 26.9174 27.6315C27.061 27.5821 27.1933 27.5047 27.3069 27.404C27.4205 27.3032 27.5131 27.181 27.5794 27.0443C27.6456 26.9077 27.6843 26.7593 27.6931 26.6077V20.4462L23.3447 18.7038L20.0344 21.9923L19.4807 21.9231C9.44597 20.6654 8.08494 10.6269 8.08494 10.5231L8.01573 9.96923L11.2914 6.65769L9.56132 2.30769H3.47125Z" fill="#2176B9"/>
</svg>
