<svg width="15" height="8" viewBox="0 0 15 8" fill="none" xmlns="http://www.w3.org/2000/svg">
<path d="M14.6698 0.305919C14.4584 0.110039 14.1716 -7.24235e-08 13.8725 -9.85649e-08C13.5735 -1.24706e-07 13.2867 0.110039 13.0753 0.305919L7.49319 5.47795L1.91111 0.305918C1.69843 0.115589 1.41357 0.0102742 1.11789 0.0126545C0.822217 0.0150353 0.539377 0.124921 0.330293 0.318646C0.121211 0.51237 0.0026137 0.774432 4.44767e-05 1.04839C-0.0025257 1.32235 0.11114 1.58628 0.316558 1.78334L6.69591 7.69408C6.90739 7.88996 7.19417 8 7.49319 8C7.79222 8 8.079 7.88996 8.29047 7.69408L14.6698 1.78334C14.8812 1.5874 15 1.32169 15 1.04463C15 0.767573 14.8812 0.501858 14.6698 0.305919Z" fill="#121212"/>
</svg>
