<svg width="60" height="49" viewBox="0 0 60 49" fill="none" xmlns="http://www.w3.org/2000/svg">
<path fill-rule="evenodd" clip-rule="evenodd" d="M38.4353 0.222712C39.8529 -0.0172089 41.4407 -0.0971821 42.9364 0.153769C45.6007 0.598503 48.0693 1.82116 50.0243 3.66433C51.2968 3.69191 52.5497 3.44371 53.6576 3.09073C54.7283 2.74566 55.7561 2.28218 56.7215 1.70912L56.7467 1.69257C57.1485 1.42798 57.6306 1.30885 58.1111 1.35536C58.5917 1.40187 59.0412 1.61117 59.3834 1.94778C59.7257 2.28439 59.9396 2.7276 59.989 3.20229C60.0384 3.67698 59.9202 4.15393 59.6544 4.55231C59.0767 5.42099 58.2703 6.97082 57.3689 8.70818L56.9364 9.53825C56.4202 10.531 55.89 11.5348 55.3961 12.3952C55.0863 12.9357 54.7542 13.4845 54.4194 13.9589V14.7145C54.4537 19.2334 53.5769 23.7137 51.8402 27.8942C50.1035 32.0746 47.5417 35.8713 44.3043 39.0628C41.0668 42.2542 37.2186 44.7764 32.9841 46.4823C28.7497 48.1882 24.2138 49.0435 19.6413 48.9983C13.015 49.0042 6.52827 47.1177 0.961599 43.5656C0.562075 43.3119 0.261724 42.9315 0.109878 42.4869C-0.0419682 42.0422 -0.0362809 41.5597 0.126005 41.1187C0.288292 40.6777 0.597528 40.3043 1.00292 40.0599C1.40832 39.8155 1.88577 39.7146 2.35685 39.7738C6.20181 40.228 10.0988 39.6149 13.611 38.0033C11.8974 37.2335 10.3649 36.1194 9.11091 34.7321C7.85697 33.3447 6.90913 31.7145 6.32775 29.9453C6.21697 29.6066 6.19652 29.2454 6.26838 28.8965C6.34024 28.5477 6.50198 28.2232 6.73795 27.9542L6.76586 27.9266C5.3497 26.6798 4.21467 25.1526 3.43443 23.4442C2.65418 21.7357 2.24617 19.8843 2.23686 18.0099V17.8665C2.23666 17.4125 2.38764 16.971 2.66653 16.6102C2.94541 16.2493 3.3367 15.9892 3.78001 15.8699C2.83508 14.0067 2.34481 11.9506 2.34848 9.86642C2.3469 7.50353 2.97231 5.18154 4.16231 3.13209C4.33138 2.84116 4.56953 2.59525 4.85621 2.41555C5.14289 2.23585 5.4695 2.12777 5.80787 2.10063C6.14624 2.07349 6.48622 2.1281 6.79847 2.25975C7.11073 2.3914 7.38589 2.59615 7.60022 2.85632C12.4813 8.799 19.4743 12.6756 27.1505 13.6941C27.0839 11.2127 27.7173 8.76189 28.9799 6.616C30.2426 4.47011 32.0846 2.71381 34.2998 1.54365C35.4216 0.953505 36.9061 0.481936 38.4353 0.222712ZM6.9584 21.0379C7.50028 22.545 8.42883 23.8873 9.65316 24.9334C10.8775 25.9795 12.3557 26.6935 13.943 27.0056C14.4004 27.0956 14.8142 27.334 15.1188 27.6829C15.4234 28.0319 15.6014 28.4714 15.6244 28.9316C15.6475 29.3919 15.5144 29.8466 15.2462 30.2236C14.978 30.6006 14.59 30.8782 14.144 31.0125C13.3849 31.2414 12.6064 31.3986 11.8167 31.4896C12.6741 32.5826 13.7682 33.4719 15.0189 34.0923C16.2696 34.7126 17.645 35.0483 19.0441 35.0746C19.4757 35.0827 19.8942 35.2224 20.2422 35.4746C20.5903 35.7269 20.851 36.0793 20.9885 36.4837C21.126 36.888 21.1336 37.3245 21.0103 37.7333C20.8871 38.1421 20.6389 38.5032 20.2998 38.7672C17.39 41.0298 14.0085 42.6262 10.3991 43.4415C13.3874 44.3868 16.5065 44.8659 19.6441 44.8617H19.6692C23.6878 44.904 27.6746 44.1543 31.3967 42.6565C35.1188 41.1587 38.5014 38.9429 41.3471 36.1384C44.1927 33.3339 46.4442 29.9971 47.97 26.3229C49.4958 22.6486 50.2654 18.7108 50.2336 14.7393V13.2639C50.2332 12.7617 50.4177 12.2765 50.7526 11.8988C50.948 11.681 51.2828 11.1791 51.7572 10.3545C52.2037 9.57686 52.7004 8.63924 53.2167 7.64922L53.3088 7.46721C51.8511 7.79139 50.3502 7.88171 48.8635 7.73471C48.3608 7.68059 47.8949 7.44843 47.5519 7.08113C46.1486 5.5773 44.2798 4.57632 42.2388 4.23518C41.2094 4.09127 40.1631 4.11456 39.1413 4.30412C38.1454 4.45733 37.1784 4.7576 36.2727 5.19486C34.4468 6.15896 32.9963 7.69478 32.1489 9.56139C31.3014 11.428 31.1049 13.5198 31.5902 15.5087C31.6666 15.8214 31.6681 16.1475 31.5946 16.4609C31.5211 16.7743 31.3746 17.0665 31.1668 17.3141C30.959 17.5618 30.6956 17.7581 30.3976 17.8875C30.0995 18.0169 29.775 18.0758 29.4499 18.0596C20.8763 17.631 12.7706 14.0657 6.71005 8.05736C6.5923 8.65426 6.53343 9.26104 6.53424 9.86918V9.87469C6.53111 11.3935 6.90807 12.8895 7.63155 14.2295C8.35503 15.5695 9.40259 16.7118 10.6809 17.5549C11.0563 17.8046 11.3397 18.1678 11.4887 18.5901C11.6376 19.0124 11.644 19.471 11.5069 19.8971C11.3699 20.3233 11.0968 20.6941 10.7285 20.954C10.3602 21.2139 9.91667 21.3488 9.46428 21.3385C8.62212 21.3154 7.78404 21.2139 6.96119 21.0351" fill="#2176B9"/>
</svg>
