<svg width="180" height="43" viewBox="0 0 180 43" fill="none" xmlns="http://www.w3.org/2000/svg">
<g opacity="0.5">
<path opacity="0.3" fill-rule="evenodd" clip-rule="evenodd" d="M1.66133 17.5295L5.67229 13.5574L13.6937 21.4999L5.67178 29.4419L1.66082 25.4709C-0.553806 23.2777 -0.553578 19.7224 1.66133 17.5295Z" fill="#2176B9"/>
<path opacity="0.5" fill-rule="evenodd" clip-rule="evenodd" d="M5.67236 29.442L13.6938 21.5L21.7157 29.442L13.6938 37.3842L5.67236 29.442Z" fill="#2176B9"/>
<path opacity="0.2" fill-rule="evenodd" clip-rule="evenodd" d="M5.67236 13.5575L9.78216 9.4885L13.6938 5.61597L21.7162 13.5575L13.6938 21.5L5.67236 13.5575Z" fill="#2176B9"/>
<path opacity="0.6" fill-rule="evenodd" clip-rule="evenodd" d="M13.6937 37.3842L21.7157 29.442L29.7376 37.3842L25.7266 41.3551C24.6629 42.4083 23.2201 43 21.7157 43C20.2112 43 18.7684 42.4083 17.7047 41.3551L13.6937 37.3842Z" fill="#2176B9"/>
<path opacity="0.7" fill-rule="evenodd" clip-rule="evenodd" d="M21.7162 29.442L29.7381 21.5L37.7602 29.442L29.7381 37.3842L21.7162 29.442Z" fill="#2176B9"/>
<path fill-rule="evenodd" clip-rule="evenodd" d="M13.6937 5.61592L17.7058 1.6449C18.7696 0.591691 20.2124 0 21.7168 0C23.2212 0 24.664 0.591691 25.7278 1.6449L29.7387 5.61592L21.7162 13.5575L13.6937 5.61592Z" fill="#2176B9"/>
<path opacity="0.9" fill-rule="evenodd" clip-rule="evenodd" d="M21.7162 13.5574L29.7381 5.61536L37.7602 13.5574L29.7381 21.4994L21.7162 13.5574Z" fill="#2176B9"/>
<path fill-rule="evenodd" clip-rule="evenodd" d="M26.3326 18.1285L29.7381 21.5L21.7162 29.442L17.3245 33.79L17.3274 25.097L13.6937 21.5L21.6911 13.5827L26.3296 8.92529L26.3326 18.1285Z" fill="#FEFEFE"/>
<path opacity="0.8" fill-rule="evenodd" clip-rule="evenodd" d="M29.738 21.4999L37.7601 13.5574L41.7711 17.5295C43.9862 19.7227 43.9862 23.2784 41.7711 25.4716L37.7601 29.4426L29.738 21.4999Z" fill="#2176B9"/>
<path fill-rule="evenodd" clip-rule="evenodd" d="M57.4514 31.7866H59.6415V13.7481H66.7894V11.7004H50.273V13.7481H57.4514V31.7866ZM73.1467 32.2383C75.1742 32.2383 76.7408 31.7213 77.8466 30.6873C78.9524 29.6533 79.505 28.1827 79.5043 26.2756V16.7603H77.3142V25.7945C77.3142 27.3205 76.9746 28.4397 76.2953 29.1523C75.616 29.8648 74.5666 30.2212 73.1471 30.2214C71.7069 30.2214 70.6524 29.865 69.9837 29.1523C69.3149 28.4396 68.9803 27.3203 68.9799 25.7945V16.7603H66.7895V26.2763C66.7895 28.1838 67.3421 29.6544 68.4472 30.6881C69.5524 31.7217 71.1186 32.238 73.1467 32.2383ZM83.6098 31.7866H85.7998V19.0182C86.8743 18.8375 87.6956 18.707 88.2636 18.6267C88.8785 18.5435 89.4985 18.5032 90.1191 18.5063C90.6072 18.5064 91.0948 18.5365 91.5791 18.5966V16.6693C91.263 16.5714 90.9363 16.5108 90.6058 16.4885C89.2766 16.4848 87.9525 16.6519 86.6668 16.9855C85.6267 17.2432 84.6054 17.5701 83.6099 17.9642L83.6098 31.7866ZM100.583 16.5187C99.9215 16.5356 99.264 16.6214 98.6211 16.7747C97.9016 16.9275 97.1948 17.134 96.5068 17.3926V10.4066H94.3167V29.2269C94.3167 31.2347 96.3445 32.2385 100.4 32.2383C102.326 32.2383 103.989 31.6411 105.388 30.4466C106.788 29.2521 107.497 27.129 107.518 24.0774C107.518 21.7087 106.935 19.8567 105.769 18.5213C104.603 17.1859 102.874 16.5184 100.583 16.5187ZM100.096 30.251C99.2422 30.2675 98.391 30.1558 97.5712 29.9197C96.8612 29.699 96.5064 29.2975 96.5066 28.7152V19.5597C97.1324 19.2116 97.8024 18.9483 98.4989 18.7768C99.1794 18.6011 99.8793 18.5101 100.583 18.5058C102.164 18.5058 103.33 19.0026 104.08 19.9964C104.831 20.9902 105.206 22.3503 105.206 24.0769C105.206 25.9843 104.846 27.4901 104.126 28.594C103.406 29.698 102.063 30.2508 100.096 30.251ZM117.1 32.2386C119.309 32.2386 121.023 31.5408 122.24 30.1453C123.457 28.7498 124.065 26.8074 124.064 24.3181C124.064 21.8892 123.486 19.977 122.331 18.5814C121.175 17.1858 119.411 16.4881 117.038 16.4882C114.788 16.4882 113.069 17.1457 111.883 18.4606C110.696 19.7756 110.103 21.728 110.103 24.3179C110.103 26.8678 110.686 28.8252 111.852 30.1902C113.018 31.5552 114.767 32.2384 117.1 32.2386ZM117.069 30.251C113.885 30.251 112.293 28.2735 112.293 24.3185C112.293 20.4239 113.885 18.4766 117.069 18.4764C118.772 18.4764 119.998 18.9783 120.749 19.982C121.499 20.9858 121.874 22.4313 121.875 24.3185C121.875 28.2738 120.273 30.2513 117.069 30.251ZM129.6 31.7869V11.0379H127.41V31.7866L129.6 31.7869ZM139.942 32.2386C142.152 32.2386 143.865 31.5408 145.082 30.1453C146.3 28.7498 146.908 26.8074 146.908 24.3181C146.908 21.8892 146.329 19.977 145.173 18.5814C144.018 17.1859 142.254 16.4882 139.881 16.4882C137.63 16.4882 135.911 17.1457 134.725 18.4606C133.538 19.7756 132.945 21.728 132.945 24.3179C132.945 26.8678 133.528 28.8252 134.694 30.1902C135.86 31.5552 137.609 32.2384 139.942 32.2386ZM139.911 30.251C136.727 30.251 135.135 28.2735 135.136 24.3185C135.136 20.4239 136.728 18.4766 139.911 18.4764C141.614 18.4764 142.841 18.9783 143.592 19.982C144.341 20.9862 144.716 22.4317 144.717 24.3185C144.717 28.2738 143.115 30.2513 139.911 30.251ZM156.883 16.5187C154.815 16.5187 153.071 17.1109 151.652 18.2954C150.232 19.4803 149.512 21.6083 149.492 24.6796C149.492 27.0488 150.075 28.9008 151.241 30.2357C152.407 31.5706 154.135 32.2382 156.427 32.2383C157.089 32.2214 157.747 32.1356 158.39 31.9823C159.109 31.8294 159.815 31.6229 160.503 31.3645V32.4788C160.503 33.4221 160.189 34.195 159.56 34.7975C158.932 35.4 157.695 35.7012 155.849 35.7009C155.18 35.7066 154.513 35.6461 153.857 35.5203C153.258 35.3998 152.564 35.2291 151.773 35.0084V37.0561C151.895 37.0759 152.174 37.1412 152.61 37.2518C153.046 37.3624 153.563 37.4729 154.161 37.5831C154.798 37.6968 155.445 37.7523 156.092 37.7488C158.546 37.7488 160.26 37.2318 161.233 36.1977C162.207 35.1637 162.694 33.9039 162.694 32.4184V20.2533C162.694 18.9885 162.131 18.0499 161.005 17.4376C159.88 16.8254 158.506 16.5189 156.883 16.5187ZM151.803 24.6794C151.803 22.7724 152.173 21.2667 152.914 20.1622C153.654 19.0578 155.038 18.5057 157.066 18.506C158.119 18.506 158.955 18.6515 159.575 18.9426C160.193 19.2339 160.502 19.7709 160.502 20.5538V29.1965C159.877 29.5449 159.207 29.8082 158.51 29.9795C157.83 30.1552 157.13 30.2462 156.427 30.2505C154.845 30.2505 153.679 29.7536 152.929 28.7599C152.179 27.7661 151.804 26.4059 151.803 24.6794ZM173.034 32.2381C175.244 32.2381 176.958 31.5403 178.175 30.1448C179.392 28.7493 180 26.8069 180 24.3176C180 21.8887 179.422 19.9765 178.267 18.5809C177.111 17.1853 175.346 16.4876 172.973 16.4877C170.722 16.4877 169.004 17.1452 167.817 18.4601C166.631 19.7751 166.037 21.7275 166.038 24.3173C166.038 26.8673 166.621 28.8247 167.787 30.1897C168.952 31.5547 170.702 32.2379 173.034 32.2381ZM173.004 30.2505C169.819 30.2505 168.228 28.273 168.229 24.318C168.229 20.4234 169.82 18.4761 173.004 18.4759C174.707 18.4759 175.934 18.9778 176.685 19.9815C177.436 20.9853 177.811 22.4308 177.809 24.318C177.809 28.2733 176.207 30.2508 173.004 30.2505Z" fill="#2176B9"/>
</g>
</svg>
