<svg width="10" height="5" viewBox="0 0 10 5" fill="none" xmlns="http://www.w3.org/2000/svg">
<path d="M9.77989 0.1912C9.6389 0.0687747 9.44772 -4.82823e-08 9.24837 -6.571e-08C9.04902 -8.31376e-08 8.85783 0.0687746 8.71685 0.1912L4.99546 3.42372L1.27408 0.191199C1.13229 0.0722434 0.94238 0.00642125 0.745263 0.00790944C0.548144 0.00939716 0.359584 0.078076 0.220195 0.199154C0.0808071 0.320232 0.0017418 0.48402 2.89901e-05 0.655244C-0.00168382 0.826467 0.0740932 0.991425 0.211038 1.11459L4.46394 4.8088C4.60492 4.93123 4.79611 5 4.99546 5C5.19481 5 5.386 4.93123 5.52698 4.8088L9.77988 1.11459C9.92082 0.992127 10 0.826056 10 0.652894C10 0.479733 9.92082 0.313662 9.77989 0.1912Z" fill="#FEFEFE"/>
</svg>
