<svg width="54" height="60" viewBox="0 0 54 60" fill="none" xmlns="http://www.w3.org/2000/svg">
<path d="M28.9318 19.7432C28.9318 19.2298 28.7286 18.7375 28.367 18.3745C28.0053 18.0115 27.5147 17.8076 27.0033 17.8076C26.4918 17.8076 26.0012 18.0115 25.6396 18.3745C25.2779 18.7375 25.0747 19.2298 25.0747 19.7432V30.9695H13.5033C12.9918 30.9695 12.5012 31.1734 12.1396 31.5364C11.7779 31.8994 11.5747 32.3917 11.5747 32.905C11.5747 33.4184 11.7779 33.9107 12.1396 34.2737C12.5012 34.6367 12.9918 34.8406 13.5033 34.8406H27.0033C27.5147 34.8406 28.0053 34.6367 28.367 34.2737C28.7286 33.9107 28.9318 33.4184 28.9318 32.905V19.7432Z" fill="#2176B9"/>
<path d="M21.2176 1.93557C21.2176 1.42222 21.4208 0.929904 21.7825 0.566915C22.1441 0.203925 22.6347 0 23.1462 0H30.8604C31.3719 0 31.8625 0.203925 32.2241 0.566915C32.5858 0.929904 32.789 1.42222 32.789 1.93557C32.789 2.44891 32.5858 2.94123 32.2241 3.30422C31.8625 3.66721 31.3719 3.87114 30.8604 3.87114V6.07768C36.1061 6.83643 40.8659 9.09717 44.6844 12.4263C44.6996 12.4094 44.7151 12.3926 44.7307 12.376L46.0961 11.0056L44.7307 9.63913C44.3686 9.27619 44.1649 8.78374 44.1646 8.27011C44.1642 7.75648 44.3672 7.26375 44.7288 6.9003C45.0904 6.53685 45.5811 6.33246 46.0928 6.3321C46.6046 6.33174 47.0956 6.53543 47.4577 6.89836L52.9117 12.376C53.0959 12.5546 53.2428 12.7682 53.3439 13.0043C53.445 13.2404 53.4982 13.4944 53.5004 13.7514C53.5026 14.0084 53.4538 14.2633 53.3569 14.5012C53.2599 14.7391 53.1167 14.9552 52.9356 15.1369C52.7545 15.3186 52.5392 15.4624 52.3022 15.5597C52.0652 15.657 51.8112 15.706 51.5551 15.7037C51.2991 15.7015 51.046 15.6481 50.8107 15.5467C50.5754 15.4452 50.3626 15.2978 50.1847 15.1129L48.8231 13.7425L47.4577 15.1129C47.4413 15.1287 47.4245 15.1442 47.4076 15.1594C51.3348 19.7093 53.6407 25.4422 53.9614 31.4533C54.282 37.4645 52.5992 43.4117 49.1785 48.3565C45.7577 53.3012 40.7938 56.9621 35.07 58.7613C29.3461 60.5605 23.1883 60.3957 17.5682 58.2929C11.9481 56.19 7.18561 52.2688 4.03232 47.1481C0.879039 42.0273 -0.485538 35.9986 0.153915 30.0131C0.793368 24.0276 3.40044 18.4263 7.56376 14.0929C11.7271 9.75949 17.2096 6.94079 23.1462 6.08155V3.87114C22.6347 3.87114 22.1441 3.66721 21.7825 3.30422C21.4208 2.94123 21.2176 2.44891 21.2176 1.93557ZM27.0033 9.67784C23.9641 9.67809 20.9548 10.2791 18.1471 11.4466C15.3393 12.6141 12.7882 14.3252 10.6394 16.4822C6.29965 20.8384 3.86188 26.7465 3.86239 32.9066C3.8629 39.0667 6.30165 44.9744 10.6421 49.3299C14.9826 53.6854 20.8693 56.132 27.0072 56.1315C33.145 56.131 39.0313 53.6834 43.371 49.3271C47.7108 44.9709 50.1486 39.0629 50.1481 32.9027C50.1475 26.7426 47.7088 20.835 43.3683 16.4794C39.0278 12.1239 33.1412 9.67733 27.0033 9.67784Z" fill="#2176B9"/>
</svg>
