<svg width="5" height="10" viewBox="0 0 5 10" fill="none" xmlns="http://www.w3.org/2000/svg">
<path d="M0.1912 0.220115C0.0687747 0.361098 6.58594e-09 0.552285 8.96315e-09 0.751634C1.13404e-08 0.950984 0.0687747 1.14217 0.1912 1.28315L3.42372 5.00454L0.1912 8.72592C0.0722443 8.86771 0.00642215 9.05762 0.00791036 9.25474C0.0093981 9.45186 0.078077 9.64042 0.199154 9.77981C0.320233 9.91919 0.484021 9.99826 0.655245 9.99997C0.826468 10.0017 0.991426 9.92591 1.11459 9.78896L4.8088 5.53606C4.93123 5.39508 5 5.20389 5 5.00454C5 4.80519 4.93123 4.614 4.8088 4.47302L1.11459 0.220115C0.992127 0.0791757 0.826056 4.97738e-08 0.652894 5.18387e-08C0.479733 5.39036e-08 0.313662 0.0791757 0.1912 0.220115Z" fill="#FEFEFE"/>
</svg>
