<svg width="30" height="30" viewBox="0 0 30 30" fill="none" xmlns="http://www.w3.org/2000/svg">
<path d="M14.4299 2.13202C15.1084 1.46256 15.9182 0.929383 16.8124 0.563422C17.7067 0.19746 18.6675 0.00599731 19.6393 0.000138651C20.611 -0.00572 21.5743 0.174142 22.4732 0.529292C23.3721 0.884443 24.1888 1.40781 24.8759 2.06904C25.563 2.73026 26.1068 3.51618 26.4758 4.38121C26.8447 5.24624 27.0315 6.17315 27.0253 7.10818C27.0191 8.04321 26.82 8.96774 26.4395 9.82815C26.0591 10.6886 25.5048 11.4677 24.809 12.1204L13.392 23.1075C12.9843 23.5063 12.4986 23.8235 11.9629 24.0408C11.4272 24.2581 10.852 24.3712 10.2707 24.3735C9.68929 24.3759 9.11319 24.2674 8.57559 24.0545C8.03799 23.8415 7.54953 23.5282 7.13839 23.1327C6.72724 22.7372 6.40155 22.2673 6.1801 21.75C5.95865 21.2328 5.84581 20.6785 5.84811 20.119C5.85041 19.5596 5.96779 19.0062 6.19349 18.4907C6.41919 17.9751 6.74873 17.5077 7.16311 17.1153L18.5816 6.12822L20.6574 8.12561L9.23892 19.1127C9.09871 19.243 8.98687 19.3989 8.90993 19.5712C8.833 19.7436 8.7925 19.9289 8.7908 20.1165C8.78911 20.304 8.82625 20.4901 8.90007 20.6637C8.97388 20.8373 9.08289 20.995 9.22073 21.1276C9.35857 21.2602 9.52248 21.3651 9.70289 21.4362C9.88331 21.5072 10.0766 21.5429 10.2715 21.5413C10.4665 21.5397 10.6591 21.5007 10.8382 21.4267C11.0173 21.3526 11.1793 21.245 11.3147 21.1101L22.7347 10.123C23.1437 9.72946 23.4681 9.26226 23.6894 8.74807C23.9108 8.23387 24.0247 7.68277 24.0247 7.12621C24.0247 6.56965 23.9108 6.01855 23.6894 5.50435C23.4681 4.99016 23.1437 4.52296 22.7347 4.12941C22.3257 3.73587 21.8401 3.42369 21.3057 3.2107C20.7713 2.99772 20.1986 2.8881 19.6202 2.8881C19.0418 2.8881 18.469 2.99772 17.9347 3.2107C17.4003 3.42369 16.9147 3.73587 16.5057 4.12941L5.0873 15.1179C3.75022 16.45 3.01036 18.2341 3.02709 20.086C3.04381 21.9379 3.81577 23.7093 5.17671 25.0189C6.53765 26.3284 8.37866 27.0712 10.3032 27.0873C12.2278 27.1034 14.082 26.3915 15.4664 25.1049L27.9242 13.1191L30 15.1179L17.5436 27.1037C15.6164 28.9582 13.0024 30 10.2768 30C7.55125 30 4.93729 28.9582 3.01001 27.1037C1.08273 25.2492 2.03072e-08 22.734 0 20.1114C-2.03072e-08 17.4888 1.08273 14.9736 3.01001 13.1191L14.4299 2.13202Z" fill="#2176B9"/>
</svg>
