<svg width="45" height="60" viewBox="0 0 45 60" fill="none" xmlns="http://www.w3.org/2000/svg">
<path d="M30.9839 56.4339L17.8533 59.9404C16.9178 60.1901 15.9475 59.6318 15.6968 58.6994C15.4462 57.7672 16.0065 56.8 16.9418 56.5503L30.0724 53.0438C31.0079 52.794 31.9782 53.3522 32.2289 54.2846C32.4798 55.2169 31.9193 56.184 30.9839 56.4339ZM24.9044 16.2175C24.7867 17.8128 23.8813 18.712 22.4757 18.6892C21.0761 18.6667 20.0575 17.7107 20.0911 16.255C20.1237 14.8387 21.0148 13.9082 22.5306 13.9248C24.0454 13.941 24.7962 14.8331 24.9044 16.2175ZM41.7379 10.8412C36.5144 2.24283 26.1686 -1.9348 16.5571 0.863944C8.14565 3.31339 2.66128 8.84866 0.667093 17.3616C-1.30675 25.7874 1.1501 33.0346 7.36804 39.1039C8.82626 40.5274 10.167 42.2515 10.9891 44.0914C11.8132 45.9356 12.0774 46.5122 14.0849 46.0281C16.8728 45.3557 19.6234 44.5299 22.4109 43.855C23.8398 43.509 24.3827 42.7139 24.3733 41.2782C24.3351 35.4838 24.3479 29.6889 24.3691 23.8943C24.3737 22.5827 23.9601 21.5027 22.5441 21.4699C21.1107 21.4367 20.6718 22.4806 20.6838 23.8178C20.717 27.5746 20.6938 31.3317 20.6936 35.0886C20.6934 41.1324 20.6936 41.1324 14.7309 42.0007C12.4642 39.4121 10.4 37.0852 8.3689 34.7297C1.07917 26.2761 2.41225 13.7795 11.5104 7.30713C18.0468 2.657 25.0684 2.39825 32.0689 6.32449C38.5691 9.97032 42.1054 17.4814 41.1681 24.7474C40.5419 29.6013 38.2164 33.4759 34.767 36.8065C32.6853 38.8167 30.7884 40.9809 30.1056 43.8874C29.7861 45.2468 29.0214 45.9211 27.7 46.2457C27.9469 46.017 13.4575 50.0632 13.4575 50.0632C12.5408 50.3079 11.9919 51.2557 12.2376 52.1692L12.2753 52.3104C12.521 53.2239 13.4718 53.7711 14.3885 53.5264C14.3885 53.5264 31.0137 49.0739 31.2317 49.0124C32.7713 48.5888 33.6092 47.4964 33.6444 45.9372C33.6968 43.6096 34.7116 41.7979 36.3629 40.2514C37.247 39.4233 38.1272 38.5879 38.9591 37.7089C45.8261 30.4502 46.9593 19.4366 41.7379 10.8412Z" fill="#2176B9"/>
</svg>
