<svg width="30" height="30" viewBox="0 0 30 30" fill="none" xmlns="http://www.w3.org/2000/svg">
<path fill-rule="evenodd" clip-rule="evenodd" d="M20.0858 18.8679H21.4408L30 27.4443L27.4443 30L18.8679 21.4408V20.0858L18.4048 19.6055C16.4494 21.2865 13.9108 22.2985 11.1492 22.2985C8.94412 22.2985 6.78853 21.6446 4.95504 20.4195C3.12156 19.1944 1.69253 17.4531 0.848673 15.4159C0.004813 13.3786 -0.215979 11.1369 0.214217 8.97412C0.644413 6.81138 1.70627 4.82478 3.26552 3.26553C4.82477 1.70628 6.81138 0.644417 8.97412 0.214221C11.1369 -0.215975 13.3786 0.00481756 15.4159 0.848677C17.4531 1.69254 19.1944 3.12156 20.4195 4.95505C21.6446 6.78853 22.2985 8.94412 22.2985 11.1492C22.3004 13.8125 21.3446 16.3877 19.6055 18.4048L20.0858 18.8679ZM3.43052 11.1492C3.43052 15.4203 6.87821 18.8679 11.1492 18.8679C15.4202 18.8679 18.8679 15.4203 18.8679 11.1492C18.8679 6.87822 15.4202 3.43053 11.1492 3.43053C6.87821 3.43053 3.43052 6.87822 3.43052 11.1492ZM12.0069 12.0069H15.4374V10.2916H12.0069V6.86108H10.2916V10.2916H6.86108V12.0069H10.2916V15.4374H12.0069V12.0069Z" fill="#2176B9"/>
</svg>
